<svg width="297" height="90" xmlns="http://www.w3.org/2000/svg" class="iconLeftSlogan">
    <!---->

    <!---->
    <!---->
    <!---->
    <!---->
    <g>
        <title>background</title>
        <rect fill="none" id="canvas_background" height="402" width="582" y="-1" x="-1"/>
    </g>
    <g>
        <title>Layer 1</title>
        <g transform="matrix(4.329004138368367,0,0,4.329004138368367,103.93939200909782,-6.060605332876342) " fill="#22C4D6" id="303a1cbd-eb89-43cd-b762-a6b96461e8ac">
            <path id="svg_1" d="m7.99,11.58l0,0q0.19,0 0.3,0.1l0,0l0,0q0.12,0.11 0.12,0.28l0,0l0,0q0,0.16 -0.12,0.27l0,0l0,0q-0.11,0.1 -0.3,0.1l0,0l-6.17,0l0,0q-0.17,0 -0.29,-0.12l0,0l0,0q-0.13,-0.11 -0.13,-0.3l0,0l0,-10.09l0,0q0,-0.18 0.13,-0.3l0,0l0,0q0.12,-0.12 0.29,-0.12l0,0l0,0q0.18,0 0.3,0.12l0,0l0,0q0.12,0.12 0.12,0.3l0,0l0,9.76l5.75,0zm5.21,-6.97l0,0q1.02,0 1.83,0.48l0,0l0,0q0.8,0.48 1.25,1.34l0,0l0,0q0.45,0.85 0.45,1.94l0,0l0,0q0,0.18 -0.11,0.29l0,0l0,0q-0.11,0.1 -0.3,0.1l0,0l-5.86,0l0,0q0.04,0.83 0.43,1.48l0,0l0,0q0.39,0.65 1.05,1.02l0,0l0,0q0.66,0.36 1.47,0.36l0,0l0,0q0.55,0 1.1,-0.19l0,0l0,0q0.55,-0.19 0.88,-0.5l0,0l0,0q0.14,-0.11 0.29,-0.11l0,0l0,0q0.15,0 0.25,0.09l0,0l0,0q0.16,0.12 0.16,0.29l0,0l0,0q0,0.14 -0.13,0.27l0,0l0,0q-0.45,0.4 -1.17,0.67l0,0l0,0q-0.72,0.26 -1.38,0.26l0,0l0,0q-1.1,0 -1.96,-0.49l0,0l0,0q-0.87,-0.5 -1.36,-1.39l0,0l0,0q-0.49,-0.89 -0.49,-2.01l0,0l0,0q0,-1.13 0.46,-2.02l0,0l0,0q0.45,-0.89 1.27,-1.39l0,0l0,0q0.82,-0.49 1.87,-0.49l0,0zm0,0.78l0,0q-1.09,0 -1.84,0.73l0,0l0,0q-0.75,0.73 -0.89,1.92l0,0l5.45,0l0,0q-0.1,-1.19 -0.84,-1.92l0,0l0,0q-0.74,-0.73 -1.88,-0.73l0,0zm8.85,-0.8l0,0q1.13,0 2.02,0.51l0,0l0,0q0.89,0.5 1.39,1.39l0,0l0,0q0.5,0.89 0.5,2.02l0,0l0,2.75l0,0q0,1.12 -0.51,2.03l0,0l0,0q-0.5,0.92 -1.38,1.44l0,0l0,0q-0.89,0.53 -1.96,0.53l0,0l0,0q-1.11,0 -1.94,-0.41l0,0l0,0q-0.84,-0.42 -1.4,-1.13l0,0l0,0q-0.11,-0.14 -0.11,-0.28l0,0l0,0q0,-0.17 0.14,-0.27l0,0l0,0q0.11,-0.08 0.25,-0.08l0,0l0,0q0.23,0 0.37,0.18l0,0l0,0q0.46,0.56 1.14,0.88l0,0l0,0q0.68,0.33 1.55,0.33l0,0l0,0q0.85,0 1.54,-0.42l0,0l0,0q0.68,-0.42 1.07,-1.16l0,0l0,0q0.4,-0.73 0.4,-1.64l0,0l0,-0.62l0,0q-0.41,0.83 -1.21,1.3l0,0l0,0q-0.81,0.48 -1.86,0.48l0,0l0,0q-1.13,0 -2.02,-0.5l0,0l0,0q-0.89,-0.5 -1.4,-1.38l0,0l0,0q-0.5,-0.89 -0.5,-2.03l0,0l0,0q0,-1.12 0.52,-2.01l0,0l0,0q0.52,-0.9 1.41,-1.4l0,0l0,0q0.9,-0.51 1.99,-0.51l0,0zm0,7.04l0,0q0.88,0 1.58,-0.4l0,0l0,0q0.7,-0.39 1.09,-1.1l0,0l0,0q0.4,-0.71 0.4,-1.62l0,0l0,0q0,-0.91 -0.4,-1.62l0,0l0,0q-0.39,-0.72 -1.09,-1.12l0,0l0,0q-0.7,-0.39 -1.58,-0.39l0,0l0,0q-0.9,0 -1.6,0.39l0,0l0,0q-0.7,0.4 -1.09,1.12l0,0l0,0q-0.39,0.71 -0.39,1.62l0,0l0,0q0,0.91 0.39,1.62l0,0l0,0q0.39,0.71 1.09,1.1l0,0l0,0q0.7,0.4 1.6,0.4l0,0zm9.51,-7.04l0,0q1.09,0 1.98,0.51l0,0l0,0q0.9,0.51 1.41,1.41l0,0l0,0q0.51,0.9 0.51,2l0,0l0,3.4l0,0q0,0.19 -0.11,0.3l0,0l0,0q-0.11,0.12 -0.31,0.12l0,0l0,0q-0.18,0 -0.3,-0.12l0,0l0,0q-0.12,-0.11 -0.12,-0.3l0,0l0,-1.09l0,0q-0.46,0.74 -1.27,1.17l0,0l0,0q-0.8,0.43 -1.79,0.43l0,0l0,0q-1.11,0 -2.01,-0.51l0,0l0,0q-0.89,-0.51 -1.4,-1.41l0,0l0,0q-0.51,-0.9 -0.51,-1.99l0,0l0,0q0,-1.1 0.51,-2l0,0l0,0q0.51,-0.9 1.4,-1.41l0,0l0,0q0.9,-0.51 2.01,-0.51l0,0zm0,7.04l0,0q0.86,0 1.56,-0.4l0,0l0,0q0.7,-0.41 1.1,-1.12l0,0l0,0q0.4,-0.72 0.4,-1.6l0,0l0,0q0,-0.88 -0.4,-1.59l0,0l0,0q-0.4,-0.72 -1.1,-1.13l0,0l0,0q-0.7,-0.41 -1.56,-0.41l0,0l0,0q-0.87,0 -1.57,0.41l0,0l0,0q-0.7,0.41 -1.11,1.13l0,0l0,0q-0.4,0.71 -0.4,1.59l0,0l0,0q0,0.88 0.4,1.6l0,0l0,0q0.41,0.71 1.11,1.12l0,0l0,0q0.7,0.4 1.57,0.4l0,0zm12.48,-6.95l0,0q0.2,0 0.31,0.11l0,0l0,0q0.11,0.11 0.11,0.31l0,0l0,6.81l0,0q0,0.19 -0.11,0.3l0,0l0,0q-0.11,0.12 -0.31,0.12l0,0l0,0q-0.18,0 -0.3,-0.12l0,0l0,0q-0.12,-0.11 -0.12,-0.3l0,0l0,-0.72l0,0q-0.47,0.58 -1.16,0.91l0,0l0,0q-0.68,0.33 -1.5,0.33l0,0l0,0q-1.02,0 -1.82,-0.42l0,0l0,0q-0.81,-0.42 -1.26,-1.22l0,0l0,0q-0.46,-0.81 -0.46,-1.93l0,0l0,-3.76l0,0q0,-0.19 0.12,-0.31l0,0l0,0q0.12,-0.11 0.3,-0.11l0,0l0,0q0.18,0 0.3,0.11l0,0l0,0q0.12,0.12 0.12,0.31l0,0l0,3.76l0,0q0,1.33 0.75,2.03l0,0l0,0q0.75,0.7 1.95,0.7l0,0l0,0q0.75,0 1.35,-0.29l0,0l0,0q0.61,-0.28 0.96,-0.79l0,0l0,0q0.35,-0.51 0.35,-1.13l0,0l0,-4.28l0,0q0,-0.2 0.12,-0.31l0,0l0,0q0.12,-0.11 0.3,-0.11l0,0zm-4.42,-2.99l0,0q0.31,0 0.51,0.21l0,0l0,0q0.2,0.21 0.2,0.51l0,0l0,0q0,0.31 -0.2,0.52l0,0l0,0q-0.2,0.21 -0.51,0.21l0,0l0,0q-0.31,0 -0.52,-0.21l0,0l0,0q-0.21,-0.21 -0.21,-0.52l0,0l0,0q0,-0.3 0.21,-0.51l0,0l0,0q0.21,-0.21 0.52,-0.21l0,0zm2.8,0l0,0q0.31,0 0.51,0.21l0,0l0,0q0.2,0.21 0.2,0.51l0,0l0,0q0,0.31 -0.2,0.52l0,0l0,0q-0.2,0.21 -0.51,0.21l0,0l0,0q-0.31,0 -0.52,-0.21l0,0l0,0q-0.21,-0.21 -0.21,-0.52l0,0l0,0q0,-0.3 0.21,-0.51l0,0l0,0q0.21,-0.21 0.52,-0.21l0,0z"/>
        </g>
        <g fill="#22C4D6" transform="matrix(1,0,0,1,-5,-5) " id="68c82eb3-39df-4714-9591-0533d2c912e0">
            <path id="svg_2" d="m50,5c-24.8,0 -45,20.2 -45,45s20.2,45 45,45s45,-20.2 45,-45s-20.2,-45 -45,-45zm0,80c-19.3,0 -35,-15.7 -35,-35s15.7,-35 35,-35s35,15.7 35,35s-15.7,35 -35,35z"/>
            <circle id="svg_3" r="5" cy="40" cx="50"/>
            <circle id="svg_4" r="5" cy="60" cx="50"/>
        </g>
        <g transform="matrix(0.5428238455199474,0,0,0.44372034057839255,81.05824790549569,59.0681864225366) " fill="#22C4D6" id="114ac82b-25a4-49b7-987a-bfd8be6fff1a">
            <path id="svg_5" d="m58.413665,22.035443c0,-0.62 0.36,-1.57 2.46,-1.57c1.7,0 2.48,0.74 2.59,1.67l1.08,0c-0.08,-1.39 -1.2,-2.65 -3.67,-2.65c-2.32,0 -3.48,1.05 -3.48,2.56c0,3.18 6.34,2.03 6.34,4.3c0,1.09 -0.98,1.64 -2.55,1.64c-1.61,0 -2.91,-0.55 -2.98,-1.89l-1.09,0c0.14,1.66 1.26,2.88 4,2.88c2.28,0 3.67,-0.95 3.67,-2.67c0,-3.24 -6.37,-2.12 -6.37,-4.27zm19.15,-2.44l-1.31,0l-3.94,9.27l1.16,0l1.14,-2.69l4.59,0l1.13,2.69l1.17,0l-3.94,-9.27zm-2.55,5.62l1.89,-4.53l1.89,4.53l-3.78,0zm20.53,-5.62l-3.21,8.08l-3.2,-8.08l-1.15,0l3.75,9.27l1.2,0l3.76,-9.27l-1.15,0zm16.14,1.01l0,-1.01l-6.82,0l0,9.27l6.82,0l0,-1.01l-5.77,0l0,-3.12l5.15,0l0,-1.02l-5.15,0l0,-3.11l5.77,0zm25.26,-1.01l-7.52,0l0,1.01l3.23,0l0,8.26l1.05,0l0,-8.26l3.24,0l0,-1.01zm9.38,0l-1.05,0l0,9.27l1.05,0l0,-9.27zm17.06,0l-3.26,4.4l-3.32,-4.4l-1.22,0l0,9.27l1.05,0l0,-7.67l3.49,4.41l3.43,-4.41l0,7.67l1.05,0l0,-9.27l-1.22,0zm17.31,1.01l0,-1.01l-6.82,0l0,9.27l6.82,0l0,-1.01l-5.77,0l0,-3.12l5.15,0l0,-1.02l-5.15,0l0,-3.11l5.77,0zm8.3,6.83l0,1.43l1.36,0l0,-1.43l-1.36,0zm24.12,-7.84l-3.91,0l0,9.27l3.91,0c2.21,0 4.26,-1.74 4.26,-4.63c0,-2.9 -2.05,-4.64 -4.26,-4.64zm-0.04,8.28l-2.82,0l0,-7.28l2.82,0c1.97,0 3.25,1.65 3.25,3.64c0,1.98 -1.28,3.64 -3.25,3.64zm14.04,-2.57l3.22,0l2.24,3.56l1.25,0l-2.44,-3.74c1.04,-0.24 2.24,-0.84 2.24,-2.63c0,-1.76 -1.22,-2.9 -3.12,-2.9l-4.44,0l0,9.27l1.05,0l0,-3.56zm0,-4.71l3.26,0c1.32,0 2.2,0.72 2.2,1.9c0,1.44 -1.26,1.82 -2.25,1.82l-3.21,0l0,-3.72zm19.47,-1l-1.31,0l-3.94,9.27l1.17,0l1.13,-2.69l4.59,0l1.14,2.69l1.16,0l-3.94,-9.27zm-2.54,5.62l1.89,-4.53l1.89,4.53l-3.78,0zm21.35,-4.61l0,-1.01l-6.7,0l0,9.27l1.05,0l0,-4.02l5.03,0l0,-1.02l-5.03,0l0,-3.22l5.65,0zm15.05,-1.01l-7.52,0l0,1.01l3.23,0l0,8.26l1.05,0l0,-8.26l3.24,0l0,-1.01zm24.15,4.54c0.65,-0.3 1.24,-0.9 1.24,-2.09c0,-1.12 -0.74,-2.45 -2.92,-2.45l-4.16,0l0,9.27l4.39,0c2.12,0 3.17,-1.05 3.17,-2.44c0,-1.38 -0.94,-2.04 -1.72,-2.29zm-4.79,-3.54l3.22,0c1.27,0 1.76,0.77 1.76,1.54c0,1.13 -0.91,1.61 -1.87,1.61l-3.11,0l0,-3.15zm3.46,7.28l-3.46,0l0,-3.18l3.34,0c1.47,0 2.12,0.78 2.12,1.65c0,0.97 -0.73,1.53 -2,1.53zm18.57,-7.27l0,-1.01l-6.81,0l0,9.27l6.81,0l0,-1.01l-5.76,0l0,-3.12l5.15,0l0,-1.02l-5.15,0l0,-3.11l5.76,0zm15.28,-1.01l-7.52,0l0,1.01l3.23,0l0,8.26l1.05,0l0,-8.26l3.24,0l0,-1.01zm14.91,0l-7.52,0l0,1.01l3.23,0l0,8.26l1.05,0l0,-8.26l3.24,0l0,-1.01zm15.15,1.01l0,-1.01l-6.82,0l0,9.27l6.82,0l0,-1.01l-5.77,0l0,-3.12l5.15,0l0,-1.02l-5.15,0l0,-3.11l5.77,0zm9.74,4.7l3.22,0l2.24,3.56l1.25,0l-2.44,-3.74c1.04,-0.24 2.24,-0.84 2.24,-2.63c0,-1.76 -1.22,-2.9 -3.12,-2.9l-4.44,0l0,9.27l1.05,0l0,-3.56zm0,-4.71l3.26,0c1.32,0 2.2,0.72 2.2,1.9c0,1.44 -1.26,1.82 -2.25,1.82l-3.21,0l0,-3.72zm14.92,6.84l0,1.43l1.36,0l0,-1.43l-1.36,0z"/>
        </g>
    </g>
</svg>
