<?xml version="1.0" encoding="UTF-8" standalone="no"?>
<svg
   width="186.40692"
   height="59.999996"
   class="iconLeftSlogan"
   version="1.1"
   id="svg19"
   xmlns="http://www.w3.org/2000/svg"
   xmlns:svg="http://www.w3.org/2000/svg">
  <defs
     id="defs23" />
  <!---->
  <!---->
  <!---->
  <!---->
  <!---->
  <g
     id="g5"
     transform="translate(-110)">
    <title
       id="title2">background</title>
    <rect
       fill="none"
       id="canvas_background"
       height="402"
       width="582"
       y="-1"
       x="-1" />
  </g>
  <g
     id="g17"
     transform="translate(-110)">
    <title
       id="title7">Layer 1</title>
    <g
       transform="matrix(4.3290041,0,0,4.3290041,103.93939,-6.0606053)"
       fill="#22c4d6"
       id="303a1cbd-eb89-43cd-b762-a6b96461e8ac">
      <path
         id="svg_1"
         d="m 7.99,11.58 v 0 q 0.19,0 0.3,0.1 v 0 0 q 0.12,0.11 0.12,0.28 v 0 0 q 0,0.16 -0.12,0.27 v 0 0 q -0.11,0.1 -0.3,0.1 v 0 H 1.82 v 0 q -0.17,0 -0.29,-0.12 v 0 0 Q 1.4,12.1 1.4,11.91 v 0 -10.09 0 q 0,-0.18 0.13,-0.3 v 0 0 Q 1.65,1.4 1.82,1.4 v 0 0 q 0.18,0 0.3,0.12 v 0 0 q 0.12,0.12 0.12,0.3 v 0 9.76 z M 13.2,4.61 v 0 q 1.02,0 1.83,0.48 v 0 0 q 0.8,0.48 1.25,1.34 v 0 0 q 0.45,0.85 0.45,1.94 v 0 0 q 0,0.18 -0.11,0.29 v 0 0 q -0.11,0.1 -0.3,0.1 v 0 h -5.86 v 0 q 0.04,0.83 0.43,1.48 v 0 0 q 0.39,0.65 1.05,1.02 v 0 0 q 0.66,0.36 1.47,0.36 v 0 0 q 0.55,0 1.1,-0.19 v 0 0 q 0.55,-0.19 0.88,-0.5 v 0 0 q 0.14,-0.11 0.29,-0.11 v 0 0 q 0.15,0 0.25,0.09 v 0 0 q 0.16,0.12 0.16,0.29 v 0 0 q 0,0.14 -0.13,0.27 v 0 0 q -0.45,0.4 -1.17,0.67 v 0 0 q -0.72,0.26 -1.38,0.26 v 0 0 q -1.1,0 -1.96,-0.49 v 0 0 q -0.87,-0.5 -1.36,-1.39 v 0 0 Q 9.6,9.63 9.6,8.51 v 0 0 q 0,-1.13 0.46,-2.02 v 0 0 Q 10.51,5.6 11.33,5.1 v 0 0 Q 12.15,4.61 13.2,4.61 Z m 0,0.78 v 0 q -1.09,0 -1.84,0.73 v 0 0 q -0.75,0.73 -0.89,1.92 v 0 h 5.45 v 0 Q 15.82,6.85 15.08,6.12 v 0 0 Q 14.34,5.39 13.2,5.39 Z m 8.85,-0.8 v 0 q 1.13,0 2.02,0.51 v 0 0 q 0.89,0.5 1.39,1.39 v 0 0 q 0.5,0.89 0.5,2.02 v 0 2.75 0 q 0,1.12 -0.51,2.03 v 0 0 q -0.5,0.92 -1.38,1.44 v 0 0 q -0.89,0.53 -1.96,0.53 v 0 0 q -1.11,0 -1.94,-0.41 v 0 0 q -0.84,-0.42 -1.4,-1.13 v 0 0 q -0.11,-0.14 -0.11,-0.28 v 0 0 q 0,-0.17 0.14,-0.27 v 0 0 q 0.11,-0.08 0.25,-0.08 v 0 0 q 0.23,0 0.37,0.18 v 0 0 q 0.46,0.56 1.14,0.88 v 0 0 q 0.68,0.33 1.55,0.33 v 0 0 q 0.85,0 1.54,-0.42 v 0 0 q 0.68,-0.42 1.07,-1.16 v 0 0 q 0.4,-0.73 0.4,-1.64 v 0 -0.62 0 q -0.41,0.83 -1.21,1.3 v 0 0 q -0.81,0.48 -1.86,0.48 v 0 0 q -1.13,0 -2.02,-0.5 v 0 0 q -0.89,-0.5 -1.4,-1.38 v 0 0 q -0.5,-0.89 -0.5,-2.03 v 0 0 q 0,-1.12 0.52,-2.01 v 0 0 q 0.52,-0.9 1.41,-1.4 v 0 0 q 0.9,-0.51 1.99,-0.51 z m 0,7.04 v 0 q 0.88,0 1.58,-0.4 v 0 0 q 0.7,-0.39 1.09,-1.1 v 0 0 q 0.4,-0.71 0.4,-1.62 v 0 0 q 0,-0.91 -0.4,-1.62 v 0 0 Q 24.33,6.17 23.63,5.77 v 0 0 Q 22.93,5.38 22.05,5.38 v 0 0 q -0.9,0 -1.6,0.39 v 0 0 q -0.7,0.4 -1.09,1.12 v 0 0 Q 18.97,7.6 18.97,8.51 v 0 0 q 0,0.91 0.39,1.62 v 0 0 q 0.39,0.71 1.09,1.1 v 0 0 q 0.7,0.4 1.6,0.4 z m 9.51,-7.04 v 0 q 1.09,0 1.98,0.51 v 0 0 q 0.9,0.51 1.41,1.41 v 0 0 q 0.51,0.9 0.51,2 v 0 3.4 0 q 0,0.19 -0.11,0.3 v 0 0 q -0.11,0.12 -0.31,0.12 v 0 0 q -0.18,0 -0.3,-0.12 v 0 0 q -0.12,-0.11 -0.12,-0.3 v 0 -1.09 0 q -0.46,0.74 -1.27,1.17 v 0 0 q -0.8,0.43 -1.79,0.43 v 0 0 q -1.11,0 -2.01,-0.51 v 0 0 Q 28.66,11.4 28.15,10.5 v 0 0 Q 27.64,9.6 27.64,8.51 v 0 0 q 0,-1.1 0.51,-2 v 0 0 q 0.51,-0.9 1.4,-1.41 v 0 0 q 0.9,-0.51 2.01,-0.51 z m 0,7.04 v 0 q 0.86,0 1.56,-0.4 v 0 0 q 0.7,-0.41 1.1,-1.12 v 0 0 q 0.4,-0.72 0.4,-1.6 v 0 0 q 0,-0.88 -0.4,-1.59 v 0 0 Q 33.82,6.2 33.12,5.79 v 0 0 Q 32.42,5.38 31.56,5.38 v 0 0 q -0.87,0 -1.57,0.41 v 0 0 q -0.7,0.41 -1.11,1.13 v 0 0 q -0.4,0.71 -0.4,1.59 v 0 0 q 0,0.88 0.4,1.6 v 0 0 q 0.41,0.71 1.11,1.12 v 0 0 q 0.7,0.4 1.57,0.4 z M 44.04,4.68 v 0 q 0.2,0 0.31,0.11 v 0 0 q 0.11,0.11 0.11,0.31 v 0 6.81 0 q 0,0.19 -0.11,0.3 v 0 0 q -0.11,0.12 -0.31,0.12 v 0 0 q -0.18,0 -0.3,-0.12 v 0 0 q -0.12,-0.11 -0.12,-0.3 v 0 -0.72 0 q -0.47,0.58 -1.16,0.91 v 0 0 q -0.68,0.33 -1.5,0.33 v 0 0 q -1.02,0 -1.82,-0.42 v 0 0 q -0.81,-0.42 -1.26,-1.22 v 0 0 Q 37.42,9.98 37.42,8.86 v 0 -3.76 0 q 0,-0.19 0.12,-0.31 v 0 0 q 0.12,-0.11 0.3,-0.11 v 0 0 q 0.18,0 0.3,0.11 v 0 0 q 0.12,0.12 0.12,0.31 v 0 3.76 0 q 0,1.33 0.75,2.03 v 0 0 q 0.75,0.7 1.95,0.7 v 0 0 q 0.75,0 1.35,-0.29 v 0 0 q 0.61,-0.28 0.96,-0.79 v 0 0 Q 43.62,10 43.62,9.38 v 0 -4.28 0 q 0,-0.2 0.12,-0.31 v 0 0 q 0.12,-0.11 0.3,-0.11 z M 39.62,1.69 v 0 q 0.31,0 0.51,0.21 v 0 0 q 0.2,0.21 0.2,0.51 v 0 0 q 0,0.31 -0.2,0.52 v 0 0 q -0.2,0.21 -0.51,0.21 v 0 0 q -0.31,0 -0.52,-0.21 v 0 0 Q 38.89,2.72 38.89,2.41 v 0 0 q 0,-0.3 0.21,-0.51 v 0 0 q 0.21,-0.21 0.52,-0.21 z m 2.8,0 v 0 q 0.31,0 0.51,0.21 v 0 0 q 0.2,0.21 0.2,0.51 v 0 0 q 0,0.31 -0.2,0.52 v 0 0 q -0.2,0.21 -0.51,0.21 v 0 0 q -0.31,0 -0.52,-0.21 v 0 0 Q 41.69,2.72 41.69,2.41 v 0 0 q 0,-0.3 0.21,-0.51 v 0 0 q 0.21,-0.21 0.52,-0.21 z" />
    </g>
  </g>
</svg>
