<?xml version="1.0" encoding="UTF-8" standalone="no"?>
<svg
   width="90"
   height="90"
   class="iconLeftSlogan"
   version="1.1"
   id="svg19"
   xmlns="http://www.w3.org/2000/svg"
   xmlns:svg="http://www.w3.org/2000/svg">
  <defs
     id="defs23" />
  <!---->
  <!---->
  <!---->
  <!---->
  <!---->
  <g
     id="g5">
    <title
       id="title2">background</title>
    <rect
       fill="none"
       id="canvas_background"
       height="402"
       width="582"
       y="-1"
       x="-1" />
  </g>
  <g
     id="g17">
    <title
       id="title7">Layer 1</title>
    <g
       fill="#22c4d6"
       transform="translate(-5,-5)"
       id="68c82eb3-39df-4714-9591-0533d2c912e0">
      <path
         id="svg_2"
         d="M 50,5 C 25.2,5 5,25.2 5,50 5,74.8 25.2,95 50,95 74.8,95 95,74.8 95,50 95,25.2 74.8,5 50,5 Z m 0,80 C 30.7,85 15,69.3 15,50 15,30.7 30.7,15 50,15 69.3,15 85,30.7 85,50 85,69.3 69.3,85 50,85 Z" />
      <circle
         id="svg_3"
         r="5"
         cy="40"
         cx="50" />
      <circle
         id="svg_4"
         r="5"
         cy="60"
         cx="50" />
    </g>
  </g>
</svg>
